<?xml version="1.0" encoding="utf-8"?>
<!-- Generator: Adobe Illustrator 16.0.3, SVG Export Plug-In . SVG Version: 6.00 Build 0)  -->
<!DOCTYPE svg PUBLIC "-//W3C//DTD SVG 1.1//EN" "http://www.w3.org/Graphics/SVG/1.1/DTD/svg11.dtd">
<svg version="1.1" id="Layer_1" xmlns="http://www.w3.org/2000/svg" xmlns:xlink="http://www.w3.org/1999/xlink" x="0px" y="0px"
	 width="1200px" height="1200px" viewBox="0 0 1200 1200" enable-background="new 0 0 1200 1200" xml:space="preserve">
<g>
	<g>
		<path fill="none" d="M695.153,753.35c0.662-0.225,1.308-0.492,1.963-0.732C696.458,752.857,695.815,753.127,695.153,753.35z"/>
		<path fill="none" d="M686.812,755.717c1.273-0.305,2.534-0.639,3.792-0.994C689.346,755.074,688.085,755.416,686.812,755.717z"/>
		<polygon fill="none" points="721.391,739.316 721.389,739.318 721.389,739.318 		"/>
		<path fill="none" d="M677.847,757.336c1.703-0.225,3.397-0.473,5.077-0.791C681.244,756.859,679.55,757.115,677.847,757.336z"/>
		<path fill="none" d="M666.332,758.164c2.837,0,5.648-0.168,8.441-0.436C671.981,757.992,669.167,758.164,666.332,758.164z"/>
		<path fill="#FB9354" d="M159.544,540.5h581.844c-8.001-49.999-37.977-180.184-149.467-265.371
			c-1.26,6.584-6.193,12.815-14.85,12.815c-16.697,0-19.607-19.867-8.799-27.406c-24.742-16.016-52.921-30.038-85.105-40.039
			h-30.482c-166.113,0-298.683,136.872-298.683,302.986v11.926C154.002,539.887,155.069,540.5,159.544,540.5z M574.001,454.324
			c19.998,0,19.998,31.502,0,31.502C554.001,485.826,554.001,454.324,574.001,454.324z M434.001,353.521
			c19.999,0,19.999,31.502,0,31.502C414,385.023,414,353.521,434.001,353.521z M304,485.824c-19.999,0-19.999-31.5,0-31.5
			C324.001,454.324,324.001,485.824,304,485.824z M284.001,319.921c19.999,0,19.999,31.501,0,31.501
			C264,351.422,264,319.921,284.001,319.921z"/>
		<path fill="#FB5046" d="M115.887,640.502h942.643c19.594,0,35.475-15.408,35.475-35c0-19.594-15.881-35-35.475-35h-44.729H749.768
			c-3.807,39.998-25.526,59.998-51.885,59.998H502.124c-26.355,0-48.082-20-51.891-59.998h-290.69h-43.656
			c-19.593,0-35.48,15.406-35.48,35C80.407,625.094,96.294,640.502,115.887,640.502z"/>
		<path fill="#64A06B" d="M142.468,728.23c21.489,0,41.523-11.877,52.292-30.59c2.713-4.719,7.745-7.756,13.188-7.756
			c5.449,0,10.477,2.85,13.194,7.568c10.764,18.713,30.807,30.311,52.294,30.311c21.485,0,41.524-11.643,52.292-30.357
			c2.719-4.719,7.746-7.637,13.189-7.637c5.447,0,10.479,2.906,13.191,7.627c10.765,18.713,30.797,30.338,52.289,30.338
			s41.529-11.629,52.297-30.342c2.713-4.719,7.741-7.631,13.188-7.631c5.443,0,10.476,2.91,13.189,7.631
			c10.763,18.713,30.808,30.34,52.292,30.34c21.492,0,41.526-11.627,52.293-30.34c2.713-4.719,7.746-7.631,13.188-7.631
			c5.447,0,10.475,2.91,13.193,7.631c10.765,18.713,30.807,30.34,52.292,30.34c21.487,0,41.524-11.627,52.294-30.34
			c2.719-4.721,7.745-7.631,13.188-7.631c5.447,0,10.479,2.91,13.193,7.631c10.763,18.713,30.801,30.34,52.288,30.34
			c21.491,0,41.53-11.627,52.298-30.34c2.713-4.721,7.741-7.631,13.188-7.631c5.442,0,10.475,2.91,13.188,7.631
			c10.769,18.713,30.807,30.34,52.292,30.34c21.491,0,41.531-11.627,52.294-30.34c2.715-4.721,7.747-7.631,13.188-7.631
			c5.447,0,10.476,2.91,13.194,7.631c8.961,15.58,24.387,27.783,41.693,31.475c1.582-0.57,3.26-0.941,5.035-0.941
			c4.719,0,9.321-1.395,13.772-0.436c25.396-4.172,45.825-26.99,50.91-46.988H83.348C88.969,709.5,113.34,728.23,142.468,728.23z"/>
		<path fill="#FB9354" d="M808.657,879.5H145.864c-2.349,0-4.819-5.164-7.66-5.727c9.506,57.078,69.75,105.727,128.963,105.727
			h449.028C788.646,949.5,805.395,909.5,808.657,879.5z"/>
		<path fill="#EA5B42" d="M577.072,256.919c11.615,0,16.541,9.378,14.85,18.21c111.49,85.187,141.466,215.372,149.467,265.371
			h272.416c4.475,0,9.197-0.613,9.197-5.088v-11.926C1022.999,357.373,886.774,220.5,720.66,220.5H483.167
			c32.183,10,60.363,24.261,85.105,40.275C570.585,259.162,573.497,256.919,577.072,256.919z M882.999,326.222
			c10.001,0,10.001,31.5,0,31.5C853,357.721,853,326.222,882.999,326.222z M833.001,456.424c19.999,0,19.999,31.5,0,31.5
			C813,487.924,813,456.424,833.001,456.424z M732.999,351.422c20.001,0,20.001,31.5,0,31.5
			C713,382.922,713,351.422,732.999,351.422z"/>
		<path fill="#EA5B42" d="M716.196,979.5h191.036c59.259,0,93.646-49.998,99.239-100H808.657
			C805.395,909.5,788.646,949.5,716.196,979.5z"/>
		<path fill="#A82223" d="M1053.666,758.934c-2.436,0-4.703-0.658-6.742-1.721c-20.289-2.812-39.069-12.365-53.181-27.064
			c-16.924,17.637-40.547,28.016-65.479,28.016c-24.931,0-48.554-10.381-65.483-28.014c-16.929,17.633-40.552,28.014-65.486,28.014
			c-24.929,0-47.747-10.379-64.677-28.016c-3.221,3.355-9.616,6.357-9.616,9.168v1.445c0,35.838-8.577,68.736-25.968,98.738h356.633
			c20.706,0,37.555-19.961,37.555-40.67C1091.221,778.125,1074.372,758.934,1053.666,758.934z"/>
		<path fill="#D63334" d="M723.001,740.762v-0.721c-10.001,5.643-16.354,9.768-25.08,12.941c-0.656,0.24-1.703,0.324-2.364,0.551
			c-1.5,0.506-3.223,0.852-4.753,1.279c-1.256,0.355-2.616,0.648-3.892,0.949c-1.289,0.301-2.632,0.561-3.938,0.807
			c-1.681,0.318-3.399,0.555-5.103,0.779c-1.025,0.133-2.053,0.287-3.085,0.387c-2.793,0.266-5.612,0.434-8.449,0.434
			c-24.928,0-48.554-10.379-65.487-28.018c-16.926,17.639-40.55,28.014-65.484,28.014c-24.928,0-48.551-10.377-65.481-28.016
			c-16.931,17.637-40.558,28.016-65.487,28.016s-48.553-10.379-65.48-28.016c-16.93,17.637-40.553,28.016-65.482,28.016
			c-24.93,0-48.552-10.379-65.488-28.016c-16.924,17.637-40.553,28.016-65.479,28.016c-5.439,0-10.735-0.564-15.909-1.486
			c-2.075,1.039-4.39,1.676-6.88,1.676c-20.706,0-37.555,19.867-37.555,40.572c0,20.709,16.85,40.574,37.555,40.574h577.354
			C714.424,809.5,723.001,776.6,723.001,740.762z"/>
		<path fill="#343539" d="M1149.839,664.393c-0.331-8.16-7.038-13.893-15.21-13.893h-28.623
			c11.38-9.998,18.406-27.143,18.406-44.863c0-36.385-29.494-65.137-65.88-65.137h-5.531c0,0,0-2.681,0-5.088v-11.926
			c0-182.893-149.445-332.986-332.341-332.986H452.685C269.79,190.5,125,340.593,125,523.486v11.926
			c0,2.408-3.762,5.088-3.335,5.088h-5.778C79.498,540.5,50,569.25,50,605.637c0,17.721,7.032,34.865,18.408,44.863h-1.342
			c-8.166,0-14.879,5.732-15.204,13.893l-0.051-0.785c-0.065,0.973-0.12,2.369-0.12,3.357c0,28.498,13.227,54.152,33.833,70.809
			c-20.194,12.025-33.833,34.33-33.833,59.361c0,33.18,23.905,62.504,55.385,68.713C113.25,940.9,189.413,1009.5,267.167,1009.5
			h640.064c79.516,0,124.684-66.654,129.965-137.998c1.772-1.006,3.205-2.002,4.439-2.002h12.03
			c37.49,0,67.986-33.301,67.986-70.789c0-19.047-7.898-37.322-20.559-50.037c29.02-14.986,48.906-45.385,48.906-80.336
			c0-0.984-0.051-2.371-0.116-3.344L1149.839,664.393z M154.002,523.486c0-166.114,132.57-302.986,298.683-302.986h30.484H720.66
			c166.113,0,302.339,136.872,302.339,302.986v11.926c0,4.476-4.721,5.088-9.197,5.088H741.388H159.544
			c-4.475,0-5.542-0.613-5.542-5.088V523.486z M115.887,570.502h43.656h290.69c-0.361,0-0.621,0-0.645-10.001h300.825
			c-0.026,10.001-0.284,10.001-0.646,10.001h264.036h44.729c19.592,0,35.475,15.406,35.475,35s-15.883,35-35.475,35H115.887
			c-19.593,0-35.48-15.408-35.48-35C80.407,585.908,96.294,570.502,115.887,570.502z M907.232,979.5H716.196H267.167
			c-59.214,0-119.457-48.648-128.963-105.727c2.841,0.562,5.311,5.727,7.66,5.727h662.794h197.815
			C1000.878,929.502,966.49,979.5,907.232,979.5z M1053.666,839.5H697.033H119.679c-20.706,0-37.555-19.865-37.555-40.572
			s16.85-39.783,37.555-39.783c2.493,0,4.806-1.033,6.88-2.07c5.174,0.922,10.469,1.287,15.909,1.287
			c24.926,0,48.556-10.477,65.479-28.115c16.934,17.639,40.558,27.969,65.486,27.969c24.929,0,48.552-10.402,65.482-28.041
			c16.93,17.637,40.553,28.004,65.482,28.004c24.928,0,48.555-10.385,65.485-28.023c16.931,17.639,40.554,28.014,65.481,28.014
			c24.935,0,48.559-10.379,65.482-28.018c16.934,17.639,40.557,28.014,65.485,28.014c2.837,0,5.648-0.172,8.443-0.436
			c1.032-0.1,2.048-0.26,3.073-0.393c1.701-0.221,3.396-0.477,5.075-0.791c1.307-0.246,2.597-0.527,3.888-0.83
			c1.273-0.301,2.534-0.641,3.792-0.994c1.527-0.428,3.049-0.865,4.549-1.371c0.662-0.225,1.306-0.494,1.963-0.732
			c8.727-3.174,16.902-7.658,24.273-13.301h0.002c3.669-2.811,7.201-5.812,10.422-9.17c16.93,17.639,40.553,28.016,65.481,28.016
			c24.935,0,48.558-10.379,65.486-28.012c16.93,17.633,40.553,28.012,65.483,28.012c24.933,0,48.556-10.377,65.479-28.016
			c14.111,14.699,32.894,24.254,53.181,27.066c2.039,1.061,4.307,1.719,6.742,1.719c20.706,0,37.555,19.193,37.555,39.896
			C1091.221,819.541,1074.372,839.5,1053.666,839.5z M1067.437,727.49c-4.449-0.959-9.052-0.516-13.771-0.516
			c-1.777,0-3.453,0.846-5.037,1.42c-17.305-3.693-32.73-15.656-41.691-31.24c-2.719-4.719-7.747-7.51-13.194-7.51
			c-5.442,0-10.475,2.967-13.189,7.688c-10.763,18.715-30.801,30.371-52.292,30.371c-21.485,0-41.523-11.611-52.292-30.324
			c-2.713-4.721-7.747-7.623-13.188-7.623c-5.447,0-10.476,2.914-13.19,7.635c-10.766,18.713-30.807,30.342-52.296,30.342
			c-21.487,0-41.525-11.627-52.288-30.34c-2.715-4.719-7.746-7.629-13.195-7.629c-5.441,0-10.47,2.91-13.188,7.631
			c-10.768,18.713-30.807,30.34-52.292,30.34c-21.487,0-41.529-11.627-52.292-30.34c-2.719-4.721-7.746-7.631-13.193-7.631
			c-5.443,0-10.475,2.912-13.188,7.631c-10.769,18.713-30.803,30.34-52.293,30.34c-21.486,0-41.531-11.625-52.294-30.338
			c-2.712-4.721-7.746-7.629-13.188-7.629c-5.447,0-10.476,2.912-13.188,7.631c-10.768,18.713-30.807,30.346-52.297,30.346
			c-21.492,0-41.526-11.617-52.289-30.33c-2.713-4.721-7.746-7.611-13.193-7.611c-5.441,0-10.469,2.947-13.188,7.666
			c-10.769,18.713-30.807,30.416-52.294,30.416c-21.485,0-41.53-11.479-52.292-30.191c-2.719-4.719-7.745-7.33-13.194-7.33
			c-5.443,0-10.475,3.514-13.188,8.232c-10.771,18.713-30.803,29.639-52.294,29.639c-29.128,0-53.499-18.732-59.118-47.73h1034.999
			C1113.266,700.5,1092.832,723.318,1067.437,727.49z"/>
		<path fill="#343539" d="M304,485.824c20.001,0,20.001-31.5,0-31.5C284.001,454.324,284.001,485.824,304,485.824z"/>
		<path fill="#343539" d="M574.001,485.824c19.998,0,19.998-31.5,0-31.5C554.001,454.324,554.001,485.824,574.001,485.824z"/>
		<path fill="#343539" d="M833.001,487.924c19.999,0,19.999-31.5,0-31.5C813,456.424,813,487.924,833.001,487.924z"/>
		<path fill="#343539" d="M732.999,382.922c20.001,0,20.001-31.5,0-31.5C713,351.422,713,382.922,732.999,382.922z"/>
		<path fill="#343539" d="M434.001,385.023c19.999,0,19.999-31.502,0-31.502C414,353.521,414,385.023,434.001,385.023z"/>
		<path fill="#343539" d="M577.072,256.919c-3.574,0-6.484,1.017-8.799,2.632c-10.809,7.539-7.898,28.868,8.799,28.868
			c8.656,0,13.59-5.756,14.85-12.339C593.613,267.248,588.687,256.919,577.072,256.919z"/>
		<path fill="#343539" d="M284.001,351.422c19.999,0,19.999-31.501,0-31.501C264,319.921,264,351.422,284.001,351.422z"/>
		<path fill="#343539" d="M882.999,357.721c10.001,0,10.001-31.5,0-31.5C853,326.222,853,357.721,882.999,357.721z"/>
		<path fill="#FFFFFF" d="M502.124,630.5h195.759c26.358,0,48.078-26.039,51.883-60.34c0.362-3.262,0.622,0.342,0.648-9.659H449.587
			c0.025,10.001,0.283,6.397,0.645,9.659C454.042,604.461,475.769,630.5,502.124,630.5z"/>
	</g>
</g>
</svg>
